<svg xmlns="http://www.w3.org/2000/svg" viewBox="0 0 160 160" fill="none">
    <defs>
        <linearGradient id="wr-fav-gradient" x1="20" y1="24" x2="140" y2="144" gradientUnits="userSpaceOnUse">
            <stop offset="0" stop-color="#1d4ed8" />
            <stop offset="0.45" stop-color="#2563eb" />
            <stop offset="1" stop-color="#0ea5e9" />
        </linearGradient>
        <linearGradient id="wr-fav-shine" x1="36" y1="28" x2="96" y2="96" gradientUnits="userSpaceOnUse">
            <stop offset="0" stop-color="#ffffff" stop-opacity="0.75" />
            <stop offset="1" stop-color="#ffffff" stop-opacity="0" />
        </linearGradient>
        <clipPath id="wr-fav-clip">
            <rect width="160" height="160" rx="40" />
        </clipPath>
    </defs>

    <g clip-path="url(#wr-fav-clip)">
        <rect width="160" height="160" rx="40" fill="url(#wr-fav-gradient)" />
        <path d="M-10 60 C40 0, 120 0, 170 60" stroke="url(#wr-fav-shine)" stroke-width="28" opacity="0.4" />
        <circle cx="52" cy="44" r="12" fill="#ffffff" fill-opacity="0.2" />
        <circle cx="124" cy="118" r="18" fill="#38bdf8" fill-opacity="0.45" />

        <path d="M32 50 L48 116 L70 74 L92 116 L108 50" stroke="#ffffff" stroke-width="12" stroke-linecap="round" stroke-linejoin="round" />
        <path d="M112 116 V50 H128 C140 50 148 58 148 70 C148 82 140 90 128 90 H112 L144 116" stroke="#ffffff" stroke-width="12" stroke-linecap="round" stroke-linejoin="round" />
    </g>

    <rect x="2.5" y="2.5" width="155" height="155" rx="37.5" stroke="#ffffff" stroke-opacity="0.12" stroke-width="5" />
</svg>
